<svg xmlns="http://www.w3.org/2000/svg" viewBox="0 0 128 128"><defs><style>.cls-1{fill:#f7f7f7;}.cls-2{fill:#333;}</style></defs><title>Asset 1</title><g id="Layer_2" data-name="Layer 2"><g id="Layer_1-2" data-name="Layer 1"><circle class="cls-1" cx="64" cy="64" r="64"/><path class="cls-2" d="M44.66,69.26h.21l4.9-14h2.84L46.19,72.72H43.35L36.92,55.25h2.84Z"/><path class="cls-2" d="M54.45,56.57a1.65,1.65,0,0,1,3.29,0,1.65,1.65,0,0,1-3.29,0Zm3,16.15H54.79V59.62h2.63Z"/><path class="cls-2" d="M60.16,66.31c0-4,2.32-6.86,6-6.86,3,0,5.74,1.87,5.74,6.43V67H62.73c.21,2.42,1.48,3.77,3.63,3.77a2.9,2.9,0,0,0,3-1.93l2.43.66c-.55,1.89-2.39,3.51-5.4,3.51C62.52,73,60.16,70.37,60.16,66.31ZM62.79,65h6.59a3.08,3.08,0,0,0-3.19-3.31C64.4,61.68,63.14,62.89,62.79,65Z"/><path class="cls-2" d="M87.34,72.72H85l-2.63-9.17h-.21l-2.61,9.17H77.17l-3.74-13.1h2.63L78.41,69h.14l2.55-9.33h2.32l2.52,9.29h.15l2.35-9.29h2.64Z"/></g></g></svg>