<svg width="24" height="24" viewBox="0 0 24 24" fill="none" xmlns="http://www.w3.org/2000/svg">
<path d="M20.7429 13.045C20.0659 13.225 19.3669 13.316 18.6659 13.316C16.5309 13.316 14.5259 12.486 13.0199 10.98C11.0119 8.972 10.2209 6.013 10.9559 3.257C11.0479 2.912 10.9489 2.544 10.6969 2.292C10.4449 2.04 10.0779 1.938 9.73086 2.034C8.02886 2.489 6.47686 3.382 5.24186 4.616C1.34386 8.514 1.34386 14.859 5.24186 18.759C7.13086 20.648 9.64286 21.689 12.3139 21.689C14.9849 21.689 17.4959 20.649 19.3839 18.76C20.6199 17.523 21.5139 15.969 21.9669 14.269C22.0589 13.924 21.9589 13.556 21.7069 13.304C21.4549 13.051 21.0859 12.951 20.7429 13.045ZM17.9709 17.346C16.4599 18.857 14.4509 19.689 12.3149 19.689C10.1779 19.689 8.16886 18.856 6.65686 17.345C3.53886 14.226 3.53886 9.15 6.65686 6.031C7.25886 5.429 7.95486 4.929 8.71686 4.548C8.49486 7.433 9.53086 10.32 11.6069 12.396C13.6749 14.465 16.5339 15.516 19.4549 15.287C19.0729 16.046 18.5719 16.743 17.9709 17.346Z" fill="#8D8F93"/>
</svg>
